<?xml version="1.0" encoding="UTF-8"?>
<!DOCTYPE svg PUBLIC "-//W3C//DTD SVG 1.1//EN" "http://www.w3.org/Graphics/SVG/1.1/DTD/svg11.dtd">
<!-- Creator: CorelDRAW X7 -->
<svg xmlns="http://www.w3.org/2000/svg" xml:space="preserve" width="500px" height="500px" version="1.1" style="shape-rendering:geometricPrecision; text-rendering:geometricPrecision; image-rendering:optimizeQuality; fill-rule:evenodd; clip-rule:evenodd"
viewBox="0 0 500 500"
 xmlns:xlink="http://www.w3.org/1999/xlink">
 <defs>
  <style type="text/css">
   <![CDATA[
    .fil0 {fill:#6B7F42}
   ]]>
  </style>
 </defs>
 <g id="Camada_x0020_1">
  <metadata id="CorelCorpID_0Corel-Layer"/>
  <path class="fil0" d="M9 357c0,25 -5,31 21,42 5,2 11,4 15,6 4,3 8,6 12,10l38 27c2,1 4,2 6,4 3,1 4,2 7,4l13 8c14,8 29,15 45,20 85,25 179,-5 185,-2l21 9c24,9 51,14 78,15l17 0c5,0 11,-1 16,-1 12,-1 10,-19 -3,-17l-21 1c-8,1 -33,-2 -41,-4 -18,-3 -35,-8 -52,-15 -15,-7 -12,-8 -28,-5l-38 7c-20,3 -43,5 -65,5 -61,0 -100,-21 -140,-50 -21,-15 -35,-29 -57,-38 -16,-6 -12,-5 -12,-22 0,-7 3,-20 5,-28 11,-45 22,-90 35,-134 5,-19 10,-36 15,-54 2,-9 5,-17 7,-26 2,-7 9,-33 11,-39 3,-5 7,-5 11,-7 23,-11 49,-21 71,-32 7,-4 40,-20 47,-21 3,2 7,8 10,12 4,5 7,9 11,14l16 21c5,7 7,10 1,16l-33 37c-10,12 -9,10 -20,2 -6,-4 -9,-12 -18,-12 -7,0 -3,9 -26,10 -3,0 -4,1 -5,1 -4,0 -9,-2 -12,1 -10,9 5,15 7,26 1,18 2,38 3,56 1,10 0,20 2,29 1,11 3,46 1,55 -2,5 -3,7 -4,11 -2,5 -3,6 -6,9 -17,13 13,34 26,-14 2,-7 2,-7 7,-10 32,-21 63,-24 98,-10 17,7 27,16 36,29 10,13 10,26 16,29 11,6 21,-9 -6,-45 -1,-2 -2,-3 -4,-5 17,-25 48,-43 80,-43 44,0 68,29 76,27 10,-2 9,-12 1,-17 -17,-12 -35,-21 -57,-25 -9,-2 -20,-2 -29,-1 -19,0 -35,7 -49,16 -12,7 -27,21 -34,32 -11,-3 -49,-36 -106,-17 -10,3 -18,8 -27,13 0,-12 -2,-22 -2,-33l-1 -24c0,-4 -1,-3 -1,-8l-1 -24c0,-5 -1,-4 -1,-8 0,-3 0,-6 0,-9 0,-4 -1,-3 -1,-8 0,-3 0,-6 0,-8 0,-5 -1,-4 -1,-8 11,0 20,-9 25,-4 9,7 11,13 25,13 13,0 23,-17 31,-26 2,-2 2,-2 4,-4 9,-11 27,-25 27,-40 0,-13 -17,-30 -25,-40l-21 -28c-4,-5 -7,-8 -10,-8l-2 0c-5,0 -12,6 -23,10l-99 46c-19,9 -21,7 -26,27l-36 129c-9,28 -15,56 -23,85 -3,10 -5,20 -7,29 -2,9 -6,22 -6,31zm415 25c0,19 34,29 50,32 6,2 17,4 17,-7 0,-8 -8,-8 -13,-9 -11,-2 -23,-6 -33,-12 -8,-6 -1,-12 -14,-12 -3,0 -7,5 -7,8zm-315 -8c0,6 16,24 21,29l13 11c40,29 87,37 136,28 6,-1 11,-2 12,-7 2,-5 -2,-11 -7,-11 -8,0 -20,4 -34,4 -29,0 -28,1 -56,-7 -11,-3 -22,-9 -30,-14 -13,-8 -26,-19 -35,-31 -3,-3 -6,-11 -12,-11 -4,0 -8,4 -8,9zm295 -228l-47 -48c-10,-9 -12,-11 -12,-25 0,-12 14,-24 27,-23 19,2 22,19 32,19 10,0 25,-33 50,-13 6,5 9,12 9,20 0,11 -5,16 -10,21l-33 32c-4,4 -13,12 -16,17zm-77 -71c0,24 16,34 33,51 3,3 38,40 42,40 8,0 8,-2 14,-9l52 -51c17,-18 16,-41 1,-59 -13,-16 -41,-19 -59,-4 -3,2 -4,4 -6,6 -12,-18 -45,-23 -65,-3 -6,6 -12,17 -12,29z"/>
 </g>
</svg>
