<?xml version="1.0" encoding="UTF-8"?>
<!DOCTYPE svg PUBLIC "-//W3C//DTD SVG 1.1//EN" "http://www.w3.org/Graphics/SVG/1.1/DTD/svg11.dtd">
<!-- Creator: CorelDRAW X7 -->
<svg xmlns="http://www.w3.org/2000/svg" xml:space="preserve" width="500px" height="500px" version="1.1" style="shape-rendering:geometricPrecision; text-rendering:geometricPrecision; image-rendering:optimizeQuality; fill-rule:evenodd; clip-rule:evenodd"
viewBox="0 0 500 500"
 xmlns:xlink="http://www.w3.org/1999/xlink">
 <defs>
  <style type="text/css">
   <![CDATA[
    .fil0 {fill:#6B7F42}
   ]]>
  </style>
 </defs>
 <g id="Camada_x0020_1">
  <metadata id="CorelCorpID_0Corel-Layer"/>
  <path class="fil0" d="M384 480l-124 0 0 -72c21,-5 29,-14 46,-27 8,-5 14,-11 21,-16l84 -64c5,-4 16,-13 21,-16 0,54 -23,132 -44,184 -1,4 -3,7 -4,11zm-317 -84c0,15 19,14 19,0 0,-12 -19,-13 -19,0zm173 -244c0,20 -4,40 11,40 13,0 9,-24 9,-38 0,-17 -20,-13 -20,-2zm-184 -94c0,8 10,12 14,18l-56 0c-13,1 -13,18 -1,20l56 1c-4,6 -13,9 -13,18 0,5 5,10 10,10 6,0 25,-21 30,-27 4,-4 8,-6 8,-12 0,-7 -12,-17 -17,-21 -4,-5 -14,-17 -21,-17 -5,0 -10,4 -10,10zm378 67c5,0 10,-4 10,-11 0,-6 -11,-12 -14,-17 13,0 25,0 37,0 12,0 29,3 29,-11 0,-13 -19,-10 -28,-10 -12,0 -25,0 -38,0 4,-6 14,-10 14,-18 0,-6 -5,-10 -11,-10 -5,0 -17,13 -21,17 -22,22 -23,19 0,43 5,4 15,17 22,17zm-364 142c3,-15 6,-27 12,-41 2,-3 5,-9 5,-12l24 14c3,2 6,3 9,4 11,5 25,10 38,14 58,14 126,16 183,0 29,-9 47,-16 72,-32 0,4 3,7 4,11l10 30c1,2 1,5 2,7l-151 115c-9,7 -12,10 -26,12 -22,3 -37,-11 -52,-23l-32 -25c-4,-3 -8,-5 -11,-8 -15,-11 -29,-22 -43,-33l-44 -33zm54 -247l252 0c-18,34 -20,75 -5,112 2,4 4,9 6,13 1,4 3,9 6,13l20 38 -22 14c-82,40 -208,37 -284,-14 1,-3 4,-8 6,-12 2,-4 4,-7 6,-11l12 -24c16,-32 17,-42 17,-75 0,-20 -7,-41 -14,-54zm-31 -10c0,9 26,17 26,77 0,34 -27,73 -39,98 -2,4 -4,6 -6,11l-16 36c-13,39 -13,62 -6,102 1,8 3,14 4,21 1,4 1,7 3,9 6,9 18,4 18,-5 0,-7 -9,-39 -9,-69l133 102c11,9 24,16 39,17l0 71 -124 0 -6 -14c-2,-6 -4,-11 -6,-16 -2,-5 -3,-10 -5,-15 -6,-17 -17,-10 -20,-6 -3,7 5,23 8,33 3,7 6,14 8,21 3,6 5,17 13,17l283 0c9,0 11,-10 14,-19l18 -50c3,-9 6,-17 9,-26 17,-60 29,-112 10,-171 -7,-22 -26,-57 -38,-80 -15,-26 -23,-43 -23,-74 0,-21 7,-48 21,-62 12,-12 -2,-18 -5,-18l-294 0c-5,0 -10,4 -10,10z"/>
 </g>
</svg>
