<?xml version="1.0" encoding="UTF-8"?>
<!DOCTYPE svg PUBLIC "-//W3C//DTD SVG 1.1//EN" "http://www.w3.org/Graphics/SVG/1.1/DTD/svg11.dtd">
<!-- Creator: CorelDRAW X7 -->
<svg xmlns="http://www.w3.org/2000/svg" xml:space="preserve" width="500px" height="500px" version="1.1" style="shape-rendering:geometricPrecision; text-rendering:geometricPrecision; image-rendering:optimizeQuality; fill-rule:evenodd; clip-rule:evenodd"
viewBox="0 0 500 500"
 xmlns:xlink="http://www.w3.org/1999/xlink">
 <defs>
  <style type="text/css">
   <![CDATA[
    .fil0 {fill:#6B7F42}
   ]]>
  </style>
 </defs>
 <g id="Camada_x0020_1">
  <metadata id="CorelCorpID_0Corel-Layer"/>
  <path class="fil0" d="M409 178c23,0 38,4 54,21 30,33 19,86 -21,104 -25,12 -55,7 -74,-13 -14,-14 -17,-24 -20,-44 -1,-8 3,-22 5,-27 8,-21 32,-41 56,-41zm-71 176c12,0 14,-21 0,-21 -9,0 -14,11 -8,17 2,2 6,4 8,4zm66 -147l0 26c-10,0 -27,-1 -32,3 -7,6 -5,18 11,18l21 0c0,13 -2,28 4,33 7,6 16,-1 16,-6l0 -27c9,0 26,1 32,-2 7,-5 5,-19 -8,-19l-24 0 0 -26c0,-12 -20,-12 -20,0zm96 32l0 6c-1,21 -9,41 -24,58l-2 2c-4,4 -7,7 -12,10 -34,23 -80,18 -109,-11 -25,-25 -33,-66 -16,-98 13,-26 41,-49 74,-49l14 1c-1,-5 -4,-15 -6,-19 -11,-30 -35,-52 -63,-65 -37,-16 -82,-8 -114,18 -4,3 -12,14 -18,14 -9,0 -29,-32 -70,-38 -44,-7 -73,6 -100,30 -2,3 -3,5 -6,8 -19,19 -33,62 -27,90 1,4 10,36 16,36l87 0c4,0 8,-19 9,-23l14 -49c2,-8 3,-18 13,-18 9,0 10,9 12,15 7,21 43,135 44,142l2 0c0,-5 3,-14 5,-18 2,-7 4,-12 6,-18 2,-9 5,-30 16,-30l51 0c5,0 10,5 10,10 0,11 -11,11 -23,11 -10,0 -21,0 -31,0 -1,8 -19,61 -22,72 -2,7 -4,18 -12,18 -10,0 -11,-7 -14,-15l-18 -61c-2,-4 -24,-74 -25,-79l-2 0c0,8 -11,41 -14,51 -2,7 -3,11 -10,12 -9,3 -72,1 -87,1 1,3 2,5 4,7 2,3 3,4 5,7 12,17 35,44 51,60 16,17 33,34 51,49 2,2 3,4 5,6l48 40c2,2 4,3 6,5 2,2 4,3 6,5 11,-8 21,-19 32,-27l11 -9c2,-2 2,-3 5,-5 11,-8 20,-19 31,-28 4,-3 11,-4 15,0 7,8 -2,14 -7,20l-18 16c-2,2 -4,4 -6,6 -2,2 -3,3 -6,5l-30 25c-34,27 -24,24 -58,-2 -14,-11 -26,-24 -40,-35l-13 -11c-2,-3 -4,-5 -6,-7 -11,-9 -38,-35 -45,-43l-18 -20c-18,-19 -33,-42 -48,-64 -10,0 -23,1 -23,-10 0,-7 5,-11 13,-11 -10,-17 -13,-36 -13,-56 0,-32 15,-63 35,-86 2,-2 2,-2 4,-4l9 -8c8,-8 18,-14 28,-19 33,-16 80,-18 112,-1 28,13 20,13 36,23 2,-2 6,-5 8,-7 3,-2 5,-4 9,-6 25,-17 47,-22 79,-22 34,0 62,16 83,34 19,16 37,49 42,75 2,11 1,8 10,13 7,4 15,9 20,15 16,16 24,36 25,56z"/>
 </g>
</svg>
