<svg xmlns="http://www.w3.org/2000/svg" xml:space="preserve" width="500px" height="500px" version="1.1" style="shape-rendering:geometricPrecision; text-rendering:geometricPrecision; image-rendering:optimizeQuality; fill-rule:evenodd; clip-rule:evenodd" viewBox="0 0 500 500" xmlns:xlink="http://www.w3.org/1999/xlink"><defs><style type="text/css"><![CDATA[.fil0 {fill:#6B7F42}]]></style></defs><g id="Camada_x0020_1"><path class="fil0" d="M94 436l22 0 0 13 -22 0 0 -13zm251 -265c0,7 5,8 9,8l0 25c-4,0 -3,0 -6,2 -5,4 -1,13 4,13 12,0 25,2 25,-7 0,-5 -3,-7 -8,-8 0,-13 4,-40 -11,-40 -4,0 -13,-1 -13,7zm-345 194l0 -5c1,-9 5,-18 13,-25 16,-11 40,-8 65,-8l0 -126 -47 0c-7,0 -17,-6 -21,-10 -9,-9 -10,-18 -10,-28l0 -1c0,-9 12,-11 15,-3 1,3 -3,15 7,22 3,3 9,6 15,6l136 0c28,0 31,-41 -2,-41l-128 0c-12,0 -22,4 -22,-6 0,-11 11,-9 22,-9 0,-13 -1,-19 9,-30 8,-7 16,-7 26,-7l0 -7c0,-10 3,-23 15,-23 12,0 28,-2 34,5 5,6 4,15 4,25 10,0 19,0 27,7 10,11 9,17 9,30l10 0c23,0 46,30 25,58 -11,15 -32,12 -46,12 -9,0 -25,-2 -25,3l0 123 40 0c19,0 17,8 25,3l20 -12c4,-2 10,-7 13,-7 0,-44 0,-88 0,-131 0,-16 -3,-35 9,-42 7,-4 25,0 30,-17 3,-13 -3,-24 10,-24 10,0 6,25 2,34 -6,12 -20,20 -35,20l0 33 31 14c10,5 19,9 29,14l45 22c4,1 12,6 15,6l90 -42c6,-3 10,-5 15,-8l15 -6c0,-8 0,-15 0,-23 1,-13 0,-8 -11,-11 -11,-2 -20,-11 -24,-19 -7,-13 -5,-44 -5,-63 0,-9 2,-18 -3,-18 -9,0 -15,-1 -22,1 0,25 3,49 -9,67 -6,9 -10,13 -19,19 -6,4 -20,8 -29,7 -14,-2 -20,-3 -29,-9 -26,-18 -24,-42 -24,-70 0,-8 1,-15 -3,-15 -9,0 -15,-1 -23,1 0,16 3,31 -8,31 -10,0 -6,-17 -6,-32 0,-7 8,-15 14,-15 22,0 41,-4 41,22 0,10 -1,27 0,37 4,33 44,46 67,24 16,-15 13,-39 13,-61 0,-8 0,-11 4,-16 1,-2 7,-6 11,-6 17,0 32,-3 38,9 4,6 3,10 3,19 0,14 0,28 0,42 0,10 -1,24 14,29 5,2 25,1 25,18l0 202c0,15 -15,30 -30,30l-6 0 0 46c0,12 -13,25 -26,25l-269 0c-13,0 -22,-5 -31,-13 -3,-2 -1,0 -4,-3 -2,-2 -1,-2 -3,-3 0,8 3,29 -16,29 -16,0 -26,2 -33,-7 -5,-5 -4,-15 -4,-22 -11,0 -18,-1 -26,-8 -10,-9 -9,-18 -9,-30l-8 0c-21,0 -34,-16 -35,-33zm137 48l312 0c0,12 2,27 -14,27l-261 0c-14,0 -25,-6 -32,-16 -2,-3 -3,-7 -5,-11zm37 -52c5,4 7,11 22,11 5,0 5,-1 9,-1l19 26 -87 0c0,-9 7,-17 14,-22 3,-2 20,-13 23,-14zm44 1c5,-1 7,-4 11,-6 4,3 12,17 15,21l15 20 -18 0c-1,-3 -3,-6 -5,-9 -3,-3 -4,-5 -6,-8l-12 -18zm25 -14c4,-2 8,-5 12,-7 1,3 3,4 4,7l35 49 -17 0 -34 -49zm-120 72c-8,0 -53,1 -58,-2 -8,-4 -7,-11 -7,-20l41 0c9,0 13,-14 -4,-15l-56 0c-10,0 -20,-2 -23,-14 -3,-11 3,-21 10,-24 8,-4 60,-2 73,-2 25,0 50,0 75,0 -1,0 -1,1 -2,2 -18,12 -42,18 -50,46 -2,11 -1,18 1,29zm-29 -219l22 0 0 126 -22 0 0 -126zm198 116c7,-10 6,-11 6,-23 12,0 13,-2 17,6 18,41 66,49 94,23 18,-15 16,-29 23,-29 6,0 17,-1 17,14l0 89 -99 0c-3,0 -12,-14 -15,-18 -8,-11 -11,-19 -19,-19 -3,0 -10,5 -2,16l15 21c-18,0 -15,3 -23,-8 -4,-7 -8,-12 -12,-18l-26 -38c3,-2 8,-6 12,-7 1,3 11,17 14,21 8,10 20,1 11,-11l-13 -19zm-97 40c-3,0 -5,-2 -7,-3 2,-3 18,-13 23,-15l72 -43c0,8 0,10 -5,13 -4,3 -8,5 -12,7l-46 28c-4,3 -21,13 -25,13zm50 -57l0 -100 60 29c9,3 56,28 59,28 6,0 95,-44 106,-50 4,-2 11,-6 15,-7l0 143c0,15 -2,26 -21,26l0 -66c0,-21 -34,-34 -48,-16 -4,5 -11,36 -46,36 -16,0 -28,-8 -36,-19 -4,-5 -6,-13 -10,-17 -9,-11 -19,-9 -34,-9 -16,0 -35,20 -45,22zm-187 -176c0,-8 5,-15 12,-15l70 0c12,0 12,14 12,22l-94 0 0 -7zm36 -44l22 0 0 14 -22 0 0 -14z"/></g></svg>