<?xml version="1.0" encoding="UTF-8"?>
<!DOCTYPE svg PUBLIC "-//W3C//DTD SVG 1.1//EN" "http://www.w3.org/Graphics/SVG/1.1/DTD/svg11.dtd">
<!-- Creator: CorelDRAW X7 -->
<svg xmlns="http://www.w3.org/2000/svg" xml:space="preserve" width="200px" height="200px" version="1.1" style="shape-rendering:geometricPrecision; text-rendering:geometricPrecision; image-rendering:optimizeQuality; fill-rule:evenodd; clip-rule:evenodd"
viewBox="0 0 200 200"
 xmlns:xlink="http://www.w3.org/1999/xlink">
 <defs>
  <style type="text/css">
   <![CDATA[
    .fil1 {fill:#8FA842}
    .fil0 {fill:#E8F0C1}
   ]]>
  </style>
 </defs>
 <g id="Camada_x0020_1">
  <metadata id="CorelCorpID_0Corel-Layer"/>
  <g id="_2335510214480">
   <circle class="fil0" cx="102" cy="97" r="63"/>
   <g>
    <path class="fil1" d="M65 103c-1,-2 -3,-3 -5,-2 -2,1 -3,4 -2,6l17 40 -7 14c-12,-6 -20,-17 -23,-29 -8,-29 15,-54 35,-70 10,-8 25,-16 37,-22 2,-1 3,-3 2,-5 -1,-2 -3,-3 -5,-2 -13,6 -28,15 -39,23 -32,25 -45,52 -38,78 4,15 15,29 30,36 0,0 0,0 0,0 2,1 5,1 6,-2l10 -20c1,-1 1,-2 0,-3l-18 -42z"/>
    <path class="fil1" d="M131 108l-36 8 -16 -34c-1,-2 -3,-3 -5,-2 -2,1 -3,3 -2,5 0,0 17,37 17,37 1,2 3,3 4,2l40 -8c2,-1 3,-3 3,-5 -1,-2 -3,-4 -5,-3z"/>
    <path class="fil1" d="M96 66c-1,-2 -3,-3 -5,-2 -2,1 -3,3 -2,5l5 12c1,2 3,3 5,2 2,-1 3,-3 2,-5l-5 -12z"/>
    <path class="fil1" d="M93 144c0,3 3,4 5,3l29 -6c2,-1 3,-3 3,-5 -1,-2 -3,-3 -5,-3l-29 7c-2,0 -4,2 -3,4z"/>
    <path class="fil1" d="M154 95c1,-25 -9,-61 -11,-69 -1,-4 -7,-5 -8,-1 0,1 2,-3 -33,68 -2,3 1,6 4,6l30 -7c2,0 3,-2 3,-4 -1,-2 -3,-4 -5,-3l-22 4 26 -51c3,14 8,39 8,57 0,26 -7,59 -34,70 -9,4 -17,6 -27,4 -2,-1 -4,0 -4,3 -1,2 1,4 3,4 11,3 21,1 31,-3 25,-11 38,-38 39,-78z"/>
   </g>
  </g>
 </g>
</svg>
