<?xml version="1.0" encoding="UTF-8"?>
<!DOCTYPE svg PUBLIC "-//W3C//DTD SVG 1.1//EN" "http://www.w3.org/Graphics/SVG/1.1/DTD/svg11.dtd">
<!-- Creator: CorelDRAW X7 -->
<svg xmlns="http://www.w3.org/2000/svg" xml:space="preserve" width="500px" height="500px" version="1.1" style="shape-rendering:geometricPrecision; text-rendering:geometricPrecision; image-rendering:optimizeQuality; fill-rule:evenodd; clip-rule:evenodd"
viewBox="0 0 500 500"
 xmlns:xlink="http://www.w3.org/1999/xlink">
 <defs>
  <style type="text/css">
   <![CDATA[
    .str0 {stroke:#6B7F42;stroke-width:4.99962}
    .fil1 {fill:none}
    .fil0 {fill:#8FA842}
   ]]>
  </style>
   <clipPath id="id0">
    <path d="M0 0l500 0 0 500 -500 0 0 -500z"/>
   </clipPath>
 </defs>
 <g id="Camada_x0020_1">
  <metadata id="CorelCorpID_0Corel-Layer"/>
  <g>
  </g>
  <g style="clip-path:url(#id0)">
   <g>
    <g id="_2335238852992">
     <polygon class="fil0 str0" points="250,292 333,250 250,208 167,250 "/>
     <polygon class="fil0 str0" points="333,167 417,125 333,83 250,125 "/>
     <polygon class="fil0 str0" points="167,167 250,125 167,83 83,125 "/>
     <polygon class="fil0 str0" points="83,292 167,250 83,208 0,250 "/>
     <polygon class="fil0 str0" points="167,417 250,375 167,333 83,375 "/>
     <polygon class="fil0 str0" points="333,417 417,375 333,333 250,375 "/>
     <polygon class="fil0 str0" points="417,292 500,250 417,208 333,250 "/>
     <polygon class="fil0 str0" points="250,542 333,500 250,458 167,500 "/>
     <polygon class="fil0 str0" points="83,542 167,500 83,458 0,500 "/>
     <polygon class="fil0 str0" points="250,42 333,0 250,-42 167,0 "/>
     <polygon class="fil0 str0" points="417,542 500,500 417,458 333,500 "/>
     <polygon class="fil0 str0" points="500,417 583,375 500,333 417,375 "/>
     <polygon class="fil0 str0" points="0,417 83,375 0,333 -83,375 "/>
     <polygon class="fil0 str0" points="500,167 583,125 500,83 417,125 "/>
     <polygon class="fil0 str0" points="0,167 83,125 0,83 -83,125 "/>
     <polygon class="fil0 str0" points="83,42 167,0 83,-42 0,0 "/>
     <polygon class="fil0 str0" points="417,42 500,0 417,-42 333,0 "/>
    </g>
    <g id="_2335238875808">
     <polygon class="fil0 str0" points="333,250 250,292 250,375 333,333 "/>
     <polygon class="fil0 str0" points="417,125 333,167 333,250 417,208 "/>
     <polygon class="fil0 str0" points="250,125 167,167 167,250 250,208 "/>
     <polygon class="fil0 str0" points="167,250 83,292 83,375 167,333 "/>
     <polygon class="fil0 str0" points="250,375 167,417 167,500 250,458 "/>
     <polygon class="fil0 str0" points="417,375 333,417 333,500 417,458 "/>
     <polygon class="fil0 str0" points="500,250 417,292 417,375 500,333 "/>
     <polygon class="fil0 str0" points="333,0 250,42 250,125 333,83 "/>
     <polygon class="fil0 str0" points="83,375 0,417 0,500 83,458 "/>
     <polygon class="fil0 str0" points="83,125 0,167 0,250 83,208 "/>
     <polygon class="fil0 str0" points="167,0 83,42 83,125 167,83 "/>
     <polygon class="fil0 str0" points="500,0 417,42 417,125 500,83 "/>
    </g>
    <g id="_2335238869632">
     <polygon class="fil0 str0" points="83,125 167,167 167,250 83,208 "/>
     <polygon class="fil0 str0" points="167,250 250,292 250,375 167,333 "/>
     <polygon class="fil0 str0" points="250,125 333,167 333,250 250,208 "/>
     <polygon class="fil0 str0" points="0,250 83,292 83,375 0,333 "/>
     <polygon class="fil0 str0" points="83,375 167,417 167,500 83,458 "/>
     <polygon class="fil0 str0" points="250,375 333,417 333,500 250,458 "/>
     <polygon class="fil0 str0" points="333,250 417,292 417,375 333,333 "/>
     <polygon class="fil0 str0" points="167,0 250,42 250,125 167,83 "/>
     <polygon class="fil0 str0" points="333,0 417,42 417,125 333,83 "/>
     <polygon class="fil0 str0" points="0,0 83,42 83,125 0,83 "/>
     <polygon class="fil0 str0" points="417,125 500,167 500,250 417,208 "/>
     <polygon class="fil0 str0" points="417,375 500,417 500,500 417,458 "/>
    </g>
   </g>
  </g>
  <polygon class="fil1" points="0,0 500,0 500,500 0,500 "/>
 </g>
</svg>
