<?xml version="1.0" encoding="UTF-8"?>
<!DOCTYPE svg PUBLIC "-//W3C//DTD SVG 1.1//EN" "http://www.w3.org/Graphics/SVG/1.1/DTD/svg11.dtd">
<!-- Creator: CorelDRAW X7 -->
<svg xmlns="http://www.w3.org/2000/svg" xml:space="preserve" width="500px" height="500px" version="1.1" style="shape-rendering:geometricPrecision; text-rendering:geometricPrecision; image-rendering:optimizeQuality; fill-rule:evenodd; clip-rule:evenodd"
viewBox="0 0 500 500"
 xmlns:xlink="http://www.w3.org/1999/xlink">
 <defs>
  <style type="text/css">
   <![CDATA[
    .fil0 {fill:#8FA842}
    .fil1 {fill:#E8F0C1;fill-opacity:0.200000}
   ]]>
  </style>
 </defs>
 <g id="Camada_x0020_1">
  <metadata id="CorelCorpID_0Corel-Layer"/>
  <rect class="fil0" width="500" height="500"/>
  <g id="_2270870735504">
   <g>
    <path class="fil1" d="M294 190c-1,-2 -2,-2 -4,-2 -1,1 -2,2 -1,4l11 25 -5 9c-7,-4 -12,-11 -14,-18 -5,-18 9,-34 22,-44 7,-5 16,-10 24,-14 1,-1 1,-2 1,-4 -1,-1 -2,-1 -4,-1 -8,4 -17,9 -24,15 -20,16 -28,33 -24,49 3,10 9,18 19,23 0,0 0,0 0,0 1,0 3,0 4,-1l6 -13c0,-1 0,-1 0,-2l-11 -26z"/>
    <path class="fil1" d="M335 192l-23 6 -9 -22c-1,-1 -2,-2 -4,-1 -1,0 -1,2 -1,3 0,0 11,23 11,24 0,1 2,1 3,1l24 -6c2,0 3,-1 2,-3 0,-1 -1,-2 -3,-2z"/>
    <path class="fil1" d="M313 166c0,-1 -2,-2 -3,-1 -1,0 -2,2 -1,3l3 7c0,2 2,2 3,2 1,-1 2,-2 2,-4l-4 -7z"/>
    <path class="fil1" d="M311 216c1,1 2,2 3,1l19 -4c1,0 2,-1 1,-3 0,-1 -1,-2 -3,-2l-18 5c-1,0 -2,1 -2,3z"/>
    <path class="fil1" d="M350 185c0,-16 -6,-39 -7,-44 -1,-3 -4,-3 -5,-1 0,1 1,-2 -21,43 -1,2 1,4 3,4l18 -4c2,-1 3,-2 2,-3 0,-2 -1,-2 -3,-2l-13 3 16 -33c2,10 5,25 5,36 0,17 -4,37 -22,45 -5,2 -10,3 -16,2 -2,-1 -3,0 -3,2 -1,1 0,2 2,3 7,1 13,0 19,-3 16,-6 25,-23 25,-48z"/>
   </g>
   <g>
    <path class="fil1" d="M331 315c1,-2 2,-2 4,-2 1,1 2,2 1,4l-11 25 5 9c7,-4 12,-11 14,-18 5,-18 -9,-34 -22,-44 -7,-5 -16,-10 -24,-14 -1,-1 -1,-2 -1,-4 1,-1 2,-1 4,-1 8,4 17,9 24,15 20,16 28,33 24,49 -3,10 -9,18 -19,23 0,0 0,0 0,0 -1,0 -3,0 -4,-1l-6 -13c0,-1 0,-1 0,-2l11 -26z"/>
    <path class="fil1" d="M290 317l23 6 9 -22c1,-1 2,-2 4,-1 1,0 1,2 1,3 0,0 -11,23 -11,24 0,1 -2,1 -3,1l-24 -6c-2,0 -3,-1 -2,-3 0,-1 1,-2 3,-2z"/>
    <path class="fil1" d="M312 291c0,-1 2,-2 3,-1 1,0 2,2 1,3l-3 7c0,2 -2,2 -3,2 -2,-1 -2,-2 -2,-4l4 -7z"/>
    <path class="fil1" d="M314 341c-1,1 -2,2 -3,1l-19 -4c-1,0 -2,-1 -1,-3 0,-1 1,-2 3,-2l18 5c1,0 2,1 2,3z"/>
    <path class="fil1" d="M275 310c0,-16 6,-39 7,-44 1,-3 4,-3 5,-1 0,1 -1,-2 21,43 1,2 -1,4 -3,4l-18 -4c-2,-1 -3,-2 -2,-3 0,-2 1,-2 3,-2l13 3 -16 -33c-2,10 -5,25 -5,36 0,17 4,37 22,45 5,2 10,3 16,2 2,-1 3,0 3,2 1,1 0,2 -2,3 -7,1 -13,0 -19,-3 -16,-6 -25,-23 -25,-48z"/>
   </g>
   <g>
    <path class="fil1" d="M294 60c-1,2 -2,2 -4,2 -1,-1 -2,-2 -1,-4l11 -25 -5 -9c-7,4 -12,11 -14,18 -5,18 9,34 22,44 7,5 16,10 24,14 1,1 1,2 1,4 -1,1 -2,1 -4,1 -8,-4 -17,-9 -24,-15 -20,-16 -28,-33 -24,-49 3,-10 9,-18 19,-23 0,0 0,0 0,0 1,0 3,0 4,1l6 13c0,1 0,1 0,2l-11 26z"/>
    <path class="fil1" d="M335 58l-23 -6 -9 22c-1,1 -2,2 -4,1 -1,0 -1,-2 -1,-3 0,0 11,-23 11,-24 0,-1 2,-1 3,-1l24 6c2,0 3,1 2,3 0,1 -1,2 -3,2z"/>
    <path class="fil1" d="M313 84c0,1 -2,2 -3,1 -1,0 -2,-2 -1,-3l3 -7c0,-2 2,-2 3,-2 1,1 2,2 2,4l-4 7z"/>
    <path class="fil1" d="M311 34c1,-1 2,-2 3,-1l19 4c1,0 2,1 1,3 0,1 -1,2 -3,2l-18 -5c-1,0 -2,-1 -2,-3z"/>
    <path class="fil1" d="M350 65c0,16 -6,39 -7,44 -1,3 -4,3 -5,1 0,-1 1,2 -21,-43 -1,-2 1,-4 3,-4l18 4c2,1 3,2 2,3 0,2 -1,2 -3,2l-13 -3 16 33c2,-10 5,-25 5,-36 0,-17 -4,-37 -22,-45 -5,-2 -10,-3 -16,-2 -2,1 -3,0 -3,-2 -1,-1 0,-2 2,-3 7,-1 13,0 19,3 16,6 25,23 25,48z"/>
   </g>
   <g>
    <path class="fil1" d="M456 190c1,-2 2,-2 4,-2 1,1 2,2 1,4l-11 25 5 9c7,-4 12,-11 14,-18 5,-18 -9,-34 -22,-44 -7,-5 -16,-10 -24,-14 -1,-1 -1,-2 -1,-4 1,-1 2,-1 4,-1 8,4 17,9 24,15 20,16 28,33 24,49 -3,10 -9,18 -19,23 0,0 0,0 0,0 -1,0 -3,0 -4,-1l-6 -13c0,-1 0,-1 0,-2l11 -26z"/>
    <path class="fil1" d="M415 192l23 6 9 -22c1,-1 2,-2 4,-1 1,0 1,2 1,3 0,0 -11,23 -11,24 0,1 -2,1 -3,1l-24 -6c-2,0 -3,-1 -2,-3 0,-1 1,-2 3,-2z"/>
    <path class="fil1" d="M437 166c0,-1 2,-2 3,-1 1,0 2,2 1,3l-3 7c0,2 -2,2 -3,2 -2,-1 -2,-2 -2,-4l4 -7z"/>
    <path class="fil1" d="M439 216c-1,1 -2,2 -3,1l-19 -4c-1,0 -2,-1 -1,-3 0,-1 1,-2 3,-2l18 5c1,0 2,1 2,3z"/>
    <path class="fil1" d="M400 185c0,-16 6,-39 7,-44 1,-3 4,-3 5,-1 0,1 -1,-2 21,43 1,2 -1,4 -3,4l-18 -4c-2,-1 -3,-2 -2,-3 0,-2 1,-2 3,-2l13 3 -16 -33c-2,10 -5,25 -5,36 0,17 4,37 22,45 5,2 10,3 16,2 2,-1 3,0 3,2 1,1 0,2 -2,3 -7,1 -13,0 -19,-3 -16,-6 -25,-23 -25,-48z"/>
   </g>
   <g>
    <path class="fil1" d="M169 185c-1,2 -2,2 -4,2 -1,-1 -2,-2 -1,-4l11 -25 -5 -9c-7,4 -12,11 -14,18 -5,18 9,34 22,44 7,5 16,10 24,14 1,1 1,2 1,4 -1,1 -2,1 -4,1 -8,-4 -17,-9 -24,-15 -20,-16 -28,-33 -24,-49 3,-10 9,-18 19,-23 0,0 0,0 0,0 1,0 3,0 4,1l6 13c0,1 0,1 0,2l-11 26z"/>
    <path class="fil1" d="M210 183l-23 -6 -9 22c-1,1 -2,2 -4,1 -1,0 -1,-2 -1,-3 0,0 11,-23 11,-24 0,-1 2,-1 3,-1l24 6c2,0 3,1 2,3 0,1 -1,2 -3,2z"/>
    <path class="fil1" d="M188 209c0,1 -2,2 -3,1 -1,0 -2,-2 -1,-3l3 -7c0,-2 2,-2 3,-2 2,1 2,2 2,4l-4 7z"/>
    <path class="fil1" d="M186 159c1,-1 2,-2 3,-1l19 4c1,0 2,1 1,3 0,1 -1,2 -3,2l-18 -5c-1,0 -2,-1 -2,-3z"/>
    <path class="fil1" d="M225 190c0,16 -6,39 -7,44 -1,3 -4,3 -5,1 0,-1 1,2 -21,-43 -1,-2 1,-4 3,-4l18 4c2,1 3,2 2,3 0,2 -1,2 -3,2l-13 -3 16 33c2,-10 5,-25 5,-36 0,-17 -4,-37 -22,-45 -5,-2 -10,-3 -16,-2 -2,1 -3,0 -3,-2 -1,-1 0,-2 2,-3 7,-1 13,0 19,3 16,6 25,23 25,48z"/>
   </g>
   <g>
    <path class="fil1" d="M294 440c-1,-2 -2,-2 -4,-2 -1,1 -2,2 -1,4l11 25 -5 9c-7,-4 -12,-11 -14,-18 -5,-18 9,-34 22,-44 7,-5 16,-10 24,-14 1,-1 1,-2 1,-4 -1,-1 -2,-1 -4,-1 -8,4 -17,9 -24,15 -20,16 -28,33 -24,49 3,10 9,18 19,23 0,0 0,0 0,0 1,0 3,0 4,-1l6 -13c0,-1 0,-1 0,-2l-11 -26z"/>
    <path class="fil1" d="M335 442l-23 6 -9 -22c-1,-1 -2,-2 -4,-1 -1,0 -1,2 -1,3 0,0 11,23 11,24 0,1 2,1 3,1l24 -6c2,0 3,-1 2,-3 0,-1 -1,-2 -3,-2z"/>
    <path class="fil1" d="M313 416c0,-1 -2,-2 -3,-1 -1,0 -2,2 -1,3l3 7c0,2 2,2 3,2 1,-1 2,-2 2,-4l-4 -7z"/>
    <path class="fil1" d="M311 466c1,1 2,2 3,1l19 -4c1,0 2,-1 1,-3 0,-1 -1,-2 -3,-2l-18 5c-1,0 -2,1 -2,3z"/>
    <path class="fil1" d="M350 435c0,-16 -6,-39 -7,-44 -1,-3 -4,-3 -5,-1 0,1 1,-2 -21,43 -1,2 1,4 3,4l18 -4c2,-1 3,-2 2,-3 0,-2 -1,-2 -3,-2l-13 3 16 -33c2,10 5,25 5,36 0,17 -4,37 -22,45 -5,2 -10,3 -16,2 -2,-1 -3,0 -3,2 -1,1 0,2 2,3 7,1 13,0 19,-3 16,-6 25,-23 25,-48z"/>
   </g>
   <g>
    <path class="fil1" d="M419 315c-1,-2 -2,-2 -4,-2 -1,1 -2,2 -1,4l11 25 -5 9c-7,-4 -12,-11 -14,-18 -5,-18 9,-34 22,-44 7,-5 16,-10 24,-14 1,-1 1,-2 1,-4 -1,-1 -2,-1 -4,-1 -8,4 -17,9 -24,15 -20,16 -28,33 -24,49 3,10 9,18 19,23 0,0 0,0 0,0 1,0 3,0 4,-1l6 -13c0,-1 0,-1 0,-2l-11 -26z"/>
    <path class="fil1" d="M460 317l-23 6 -9 -22c-1,-1 -2,-2 -4,-1 -1,0 -1,2 -1,3 0,0 11,23 11,24 0,1 2,1 3,1l24 -6c2,0 3,-1 2,-3 0,-1 -1,-2 -3,-2z"/>
    <path class="fil1" d="M438 291c0,-1 -2,-2 -3,-1 -1,0 -2,2 -1,3l3 7c0,2 2,2 3,2 2,-1 2,-2 2,-4l-4 -7z"/>
    <path class="fil1" d="M436 341c1,1 2,2 3,1l19 -4c1,0 2,-1 1,-3 0,-1 -1,-2 -3,-2l-18 5c-1,0 -2,1 -2,3z"/>
    <path class="fil1" d="M475 310c0,-16 -6,-39 -7,-44 -1,-3 -4,-3 -5,-1 0,1 1,-2 -21,43 -1,2 1,4 3,4l18 -4c2,-1 3,-2 2,-3 0,-2 -1,-2 -3,-2l-13 3 16 -33c2,10 5,25 5,36 0,17 -4,37 -22,45 -5,2 -10,3 -16,2 -2,-1 -3,0 -3,2 -1,1 0,2 2,3 7,1 13,0 19,-3 16,-6 25,-23 25,-48z"/>
   </g>
   <g>
    <path class="fil1" d="M419 435c-1,2 -2,2 -4,2 -1,-1 -2,-2 -1,-4l11 -25 -5 -9c-7,4 -12,11 -14,18 -5,18 9,34 22,44 7,5 16,10 24,14 1,1 1,2 1,4 -1,1 -2,1 -4,1 -8,-4 -17,-9 -24,-15 -20,-16 -28,-33 -24,-49 3,-10 9,-18 19,-23 0,0 0,0 0,0 1,0 3,0 4,1l6 13c0,1 0,1 0,2l-11 26z"/>
    <path class="fil1" d="M460 433l-23 -6 -9 22c-1,1 -2,2 -4,1 -1,0 -1,-2 -1,-3 0,0 11,-23 11,-24 0,-1 2,-1 3,-1l24 6c2,0 3,1 2,3 0,1 -1,2 -3,2z"/>
    <path class="fil1" d="M438 459c0,1 -2,2 -3,1 -1,0 -2,-2 -1,-3l3 -7c0,-2 2,-2 3,-2 2,1 2,2 2,4l-4 7z"/>
    <path class="fil1" d="M436 409c1,-1 2,-2 3,-1l19 4c1,0 2,1 1,3 0,1 -1,2 -3,2l-18 -5c-1,0 -2,-1 -2,-3z"/>
    <path class="fil1" d="M475 440c0,16 -6,39 -7,44 -1,3 -4,3 -5,1 0,-1 1,2 -21,-43 -1,-2 1,-4 3,-4l18 4c2,1 3,2 2,3 0,2 -1,2 -3,2l-13 -3 16 33c2,-10 5,-25 5,-36 0,-17 -4,-37 -22,-45 -5,-2 -10,-3 -16,-2 -2,1 -3,0 -3,-2 -1,-1 0,-2 2,-3 7,-1 13,0 19,3 16,6 25,23 25,48z"/>
   </g>
   <g>
    <path class="fil1" d="M419 65c-1,-2 -2,-2 -4,-2 -1,1 -2,2 -1,4l11 25 -5 9c-7,-4 -12,-11 -14,-18 -5,-18 9,-34 22,-44 7,-5 16,-10 24,-14 1,-1 1,-2 1,-4 -1,-1 -2,-1 -4,-1 -8,4 -17,9 -24,15 -20,16 -28,33 -24,49 3,10 9,18 19,23 0,0 0,0 0,0 1,0 3,0 4,-1l6 -13c0,-1 0,-1 0,-2l-11 -26z"/>
    <path class="fil1" d="M460 67l-23 6 -9 -22c-1,-1 -2,-2 -4,-1 -1,0 -1,2 -1,3 0,0 11,23 11,24 0,1 2,1 3,1l24 -6c2,0 3,-1 2,-3 0,-1 -1,-2 -3,-2z"/>
    <path class="fil1" d="M438 41c0,-1 -2,-2 -3,-1 -1,0 -2,2 -1,3l3 7c0,2 2,2 3,2 2,-1 2,-2 2,-4l-4 -7z"/>
    <path class="fil1" d="M436 91c1,1 2,2 3,1l19 -4c1,0 2,-1 1,-3 0,-1 -1,-2 -3,-2l-18 5c-1,0 -2,1 -2,3z"/>
    <path class="fil1" d="M475 60c0,-16 -6,-39 -7,-44 -1,-3 -4,-3 -5,-1 0,1 1,-2 -21,43 -1,2 1,4 3,4l18 -4c2,-1 3,-2 2,-3 0,-2 -1,-2 -3,-2l-13 3 16 -33c2,10 5,25 5,36 0,17 -4,37 -22,45 -5,2 -10,3 -16,2 -2,-1 -3,0 -3,2 -1,1 0,2 2,3 7,1 13,0 19,-3 16,-6 25,-23 25,-48z"/>
   </g>
   <g>
    <path class="fil1" d="M44 190c-1,-2 -2,-2 -4,-2 -1,1 -2,2 -1,4l11 25 -5 9c-7,-4 -12,-11 -14,-18 -5,-18 9,-34 22,-44 7,-5 16,-10 24,-14 1,-1 1,-2 1,-4 -1,-1 -2,-1 -4,-1 -8,4 -17,9 -24,15 -20,16 -28,33 -24,49 3,10 9,18 19,23 0,0 0,0 0,0 1,0 3,0 4,-1l6 -13c0,-1 0,-1 0,-2l-11 -26z"/>
    <path class="fil1" d="M85 192l-23 6 -9 -22c-1,-1 -2,-2 -4,-1 -1,0 -1,2 -1,3 0,0 11,23 11,24 0,1 2,1 3,1l24 -6c2,0 3,-1 2,-3 0,-1 -1,-2 -3,-2z"/>
    <path class="fil1" d="M63 166c0,-1 -2,-2 -3,-1 -1,0 -2,2 -1,3l3 7c0,2 2,2 3,2 2,-1 2,-2 2,-4l-4 -7z"/>
    <path class="fil1" d="M61 216c1,1 2,2 3,1l19 -4c1,0 2,-1 1,-3 0,-1 -1,-2 -3,-2l-18 5c-1,0 -2,1 -2,3z"/>
    <path class="fil1" d="M100 185c0,-16 -6,-39 -7,-44 -1,-3 -4,-3 -5,-1 0,1 1,-2 -21,43 -1,2 1,4 3,4l18 -4c2,-1 3,-2 2,-3 0,-2 -1,-2 -3,-2l-13 3 16 -33c2,10 5,25 5,36 0,17 -4,37 -22,45 -5,2 -10,3 -16,2 -2,-1 -3,0 -3,2 -1,1 0,2 2,3 7,1 13,0 19,-3 16,-6 25,-23 25,-48z"/>
   </g>
   <g>
    <path class="fil1" d="M169 65c-1,-2 -2,-2 -4,-2 -1,1 -2,2 -1,4l11 25 -5 9c-7,-4 -12,-11 -14,-18 -5,-18 9,-34 22,-44 7,-5 16,-10 24,-14 1,-1 1,-2 1,-4 -1,-1 -2,-1 -4,-1 -8,4 -17,9 -24,15 -20,16 -28,33 -24,49 3,10 9,18 19,23 0,0 0,0 0,0 1,0 3,0 4,-1l6 -13c0,-1 0,-1 0,-2l-11 -26z"/>
    <path class="fil1" d="M210 67l-23 6 -9 -22c-1,-1 -2,-2 -4,-1 -1,0 -1,2 -1,3 0,0 11,23 11,24 0,1 2,1 3,1l24 -6c2,0 3,-1 2,-3 0,-1 -1,-2 -3,-2z"/>
    <path class="fil1" d="M188 41c0,-1 -2,-2 -3,-1 -1,0 -2,2 -1,3l3 7c0,2 2,2 3,2 2,-1 2,-2 2,-4l-4 -7z"/>
    <path class="fil1" d="M186 91c1,1 2,2 3,1l19 -4c1,0 2,-1 1,-3 0,-1 -1,-2 -3,-2l-18 5c-1,0 -2,1 -2,3z"/>
    <path class="fil1" d="M225 60c0,-16 -6,-39 -7,-44 -1,-3 -4,-3 -5,-1 0,1 1,-2 -21,43 -1,2 1,4 3,4l18 -4c2,-1 3,-2 2,-3 0,-2 -1,-2 -3,-2l-13 3 16 -33c2,10 5,25 5,36 0,17 -4,37 -22,45 -5,2 -10,3 -16,2 -2,-1 -3,0 -3,2 -1,1 0,2 2,3 7,1 13,0 19,-3 16,-6 25,-23 25,-48z"/>
   </g>
   <g>
    <path class="fil1" d="M169 315c-1,-2 -2,-2 -4,-2 -1,1 -2,2 -1,4l11 25 -5 9c-7,-4 -12,-11 -14,-18 -5,-18 9,-34 22,-44 7,-5 16,-10 24,-14 1,-1 1,-2 1,-4 -1,-1 -2,-1 -4,-1 -8,4 -17,9 -24,15 -20,16 -28,33 -24,49 3,10 9,18 19,23 0,0 0,0 0,0 1,0 3,0 4,-1l6 -13c0,-1 0,-1 0,-2l-11 -26z"/>
    <path class="fil1" d="M210 317l-23 6 -9 -22c-1,-1 -2,-2 -4,-1 -1,0 -1,2 -1,3 0,0 11,23 11,24 0,1 2,1 3,1l24 -6c2,0 3,-1 2,-3 0,-1 -1,-2 -3,-2z"/>
    <path class="fil1" d="M188 291c0,-1 -2,-2 -3,-1 -1,0 -2,2 -1,3l3 7c0,2 2,2 3,2 2,-1 2,-2 2,-4l-4 -7z"/>
    <path class="fil1" d="M186 341c1,1 2,2 3,1l19 -4c1,0 2,-1 1,-3 0,-1 -1,-2 -3,-2l-18 5c-1,0 -2,1 -2,3z"/>
    <path class="fil1" d="M225 310c0,-16 -6,-39 -7,-44 -1,-3 -4,-3 -5,-1 0,1 1,-2 -21,43 -1,2 1,4 3,4l18 -4c2,-1 3,-2 2,-3 0,-2 -1,-2 -3,-2l-13 3 16 -33c2,9 5,25 5,36 0,17 -4,37 -22,45 -5,2 -10,3 -16,2 -2,-1 -3,0 -3,2 -1,1 0,2 2,3 7,1 13,0 19,-3 16,-6 25,-23 25,-48z"/>
   </g>
   <g>
    <path class="fil1" d="M44 440c-1,-2 -2,-2 -4,-2 -1,1 -2,2 -1,4l11 25 -5 9c-7,-4 -12,-11 -14,-18 -5,-18 9,-34 22,-44 7,-5 16,-10 24,-14 1,-1 1,-2 1,-4 -1,-1 -2,-1 -4,-1 -8,4 -17,9 -24,15 -20,16 -28,33 -24,49 3,10 9,18 19,23 0,0 0,0 0,0 1,0 3,0 4,-1l6 -13c0,-1 0,-1 0,-2l-11 -26z"/>
    <path class="fil1" d="M85 442l-23 6 -9 -22c-1,-1 -2,-2 -4,-1 -1,0 -1,2 -1,3 0,0 11,23 11,24 0,1 2,1 3,1l24 -6c2,0 3,-1 2,-3 0,-1 -1,-2 -3,-2z"/>
    <path class="fil1" d="M63 416c0,-1 -2,-2 -3,-1 -1,0 -2,2 -1,3l3 7c0,2 2,2 3,2 2,-1 2,-2 2,-4l-4 -7z"/>
    <path class="fil1" d="M61 466c1,1 2,2 3,1l19 -4c1,0 2,-1 1,-3 0,-1 -1,-2 -3,-2l-18 5c-1,0 -2,1 -2,3z"/>
    <path class="fil1" d="M100 435c0,-16 -6,-39 -7,-44 -1,-3 -4,-3 -5,-1 0,1 1,-2 -21,43 -1,2 1,4 3,4l18 -4c2,-1 3,-2 2,-3 0,-2 -1,-2 -3,-2l-13 3 16 -33c2,9 5,25 5,36 0,17 -4,37 -22,45 -5,2 -10,3 -16,2 -2,-1 -3,0 -3,2 -1,1 0,2 2,3 7,1 13,0 19,-3 16,-6 25,-23 25,-48z"/>
   </g>
   <g>
    <path class="fil1" d="M206 440c1,-2 2,-2 4,-2 1,1 2,2 1,4l-11 25 5 9c7,-4 12,-11 14,-18 5,-18 -9,-34 -22,-44 -7,-5 -16,-10 -24,-14 -1,-1 -1,-2 -1,-4 1,-1 2,-1 4,-1 8,4 17,9 24,15 20,16 28,33 24,49 -3,10 -9,18 -19,23 0,0 0,0 0,0 -1,0 -3,0 -4,-1l-6 -13c0,-1 0,-1 0,-2l11 -26z"/>
    <path class="fil1" d="M165 442l23 6 9 -22c1,-1 2,-2 4,-1 1,0 1,2 1,3 0,0 -11,23 -11,24 0,1 -2,1 -3,1l-24 -6c-2,0 -3,-1 -2,-3 0,-1 1,-2 3,-2z"/>
    <path class="fil1" d="M187 416c0,-1 2,-2 3,-1 1,0 2,2 1,3l-3 7c0,2 -2,2 -3,2 -2,-1 -2,-2 -2,-4l4 -7z"/>
    <path class="fil1" d="M189 466c-1,1 -2,2 -3,1l-19 -4c-1,0 -2,-1 -1,-3 0,-1 1,-2 3,-2l18 5c1,0 2,1 2,3z"/>
    <path class="fil1" d="M150 435c0,-16 6,-39 7,-44 1,-3 4,-3 5,-1 0,1 -1,-2 21,43 1,2 -1,4 -3,4l-18 -4c-2,-1 -3,-2 -2,-3 0,-2 1,-2 3,-2l13 3 -16 -33c-2,9 -5,25 -5,36 0,17 4,37 22,45 5,2 10,3 16,2 2,-1 3,0 3,2 1,1 0,2 -2,3 -7,1 -13,0 -19,-3 -16,-6 -25,-23 -25,-48z"/>
   </g>
   <g>
    <path class="fil1" d="M44 310c-1,2 -2,2 -4,2 -1,-1 -2,-2 -1,-4l11 -25 -5 -9c-7,4 -12,11 -14,18 -5,18 9,34 22,44 7,5 16,10 24,14 1,1 1,2 1,4 -1,1 -2,1 -4,1 -8,-4 -17,-9 -24,-15 -20,-16 -28,-33 -24,-49 3,-10 9,-18 19,-23 0,0 0,0 0,0 1,0 3,0 4,1l6 13c0,1 0,1 0,2l-11 26z"/>
    <path class="fil1" d="M85 308l-23 -6 -9 22c-1,1 -2,2 -4,1 -1,0 -1,-2 -1,-3 0,0 11,-23 11,-24 0,-1 2,-1 3,-1l24 6c2,0 3,1 2,3 0,1 -1,2 -3,2z"/>
    <path class="fil1" d="M63 334c0,1 -2,2 -3,1 -1,0 -2,-2 -1,-3l3 -7c0,-2 2,-2 3,-2 2,1 2,2 2,4l-4 7z"/>
    <path class="fil1" d="M61 284c1,-1 2,-2 3,-1l19 4c1,0 2,1 1,3 0,1 -1,2 -3,2l-18 -5c-1,0 -2,-1 -2,-3z"/>
    <path class="fil1" d="M100 315c0,16 -6,39 -7,44 -1,3 -4,3 -5,1 0,-1 1,2 -21,-43 -1,-2 1,-4 3,-4l18 4c2,1 3,2 2,3 0,2 -1,2 -3,2l-13 -3 16 33c2,-10 5,-25 5,-36 0,-17 -4,-37 -22,-45 -5,-2 -10,-3 -16,-2 -2,1 -3,0 -3,-2 -1,-1 0,-2 2,-3 7,-1 13,0 19,3 16,6 25,23 25,48z"/>
   </g>
   <g>
    <path class="fil1" d="M81 65c1,-2 2,-2 4,-2 1,1 2,2 1,4l-11 25 5 9c7,-4 12,-11 14,-18 5,-18 -9,-34 -22,-44 -7,-5 -16,-10 -24,-14 -1,-1 -1,-2 -1,-4 1,-1 2,-1 4,-1 8,4 17,9 24,15 20,16 28,33 24,49 -3,10 -9,18 -19,23 0,0 0,0 0,0 -1,0 -3,0 -4,-1l-6 -13c0,-1 0,-1 0,-2l11 -26z"/>
    <path class="fil1" d="M40 67l23 6 9 -22c1,-1 2,-2 4,-1 1,0 1,2 1,3 0,0 -11,23 -11,24 0,1 -2,1 -3,1l-24 -6c-2,0 -3,-1 -2,-3 0,-1 1,-2 3,-2z"/>
    <path class="fil1" d="M62 41c0,-1 2,-2 3,-1 1,0 2,2 1,3l-3 7c0,2 -2,2 -3,2 -2,-1 -2,-2 -2,-4l4 -7z"/>
    <path class="fil1" d="M64 91c-1,1 -2,2 -3,1l-19 -4c-1,0 -2,-1 -1,-3 0,-1 1,-2 3,-2l18 5c1,0 2,1 2,3z"/>
    <path class="fil1" d="M25 60c0,-16 6,-39 7,-44 1,-3 4,-3 5,-1 0,1 -1,-2 21,43 1,2 -1,4 -3,4l-18 -4c-2,-1 -3,-2 -2,-3 0,-2 1,-2 3,-2l13 3 -16 -33c-2,10 -5,25 -5,36 0,17 4,37 22,45 5,2 10,3 16,2 2,-1 3,0 3,2 1,1 0,2 -2,3 -7,1 -13,0 -19,-3 -16,-6 -25,-23 -25,-48z"/>
   </g>
  </g>
 </g>
</svg>
